<svg width="35" height="35" viewBox="0 0 35 35" fill="none" xmlns="http://www.w3.org/2000/svg">
<path d="M17.5 0.529785C19.6668 0.529785 21.8126 0.956442 23.8145 1.78564C25.8163 2.61485 27.6349 3.83065 29.167 5.36279C30.6991 6.89493 31.9149 8.7135 32.7441 10.7153C33.5733 12.7172 34 14.863 34 17.0298C34 19.1966 33.5733 21.3424 32.7441 23.3442C31.9149 25.3461 30.6991 27.1646 29.167 28.6968C27.6349 30.2289 25.8163 31.4447 23.8145 32.2739C21.8126 33.1031 19.6668 33.5298 17.5 33.5298C13.1239 33.5298 8.92736 31.7911 5.83301 28.6968C2.73866 25.6024 1 21.4059 1 17.0298C1 12.6537 2.73866 8.45714 5.83301 5.36279C8.92736 2.26844 13.1239 0.529785 17.5 0.529785ZM10.6133 7.67529C9.25516 7.67529 8.14551 8.78495 8.14551 10.1431V23.9165C8.14551 25.2746 9.25516 26.3843 10.6133 26.3843H24.3867C25.7448 26.3843 26.8545 25.2746 26.8545 23.9165V10.1431C26.8545 8.78495 25.7448 7.67529 24.3867 7.67529H10.6133ZM11.7041 16.644C11.6942 16.771 11.6875 16.8995 11.6875 17.0298C11.6875 18.5714 12.2996 20.0501 13.3896 21.1401C14.4797 22.2302 15.9584 22.8423 17.5 22.8423C19.0416 22.8423 20.5203 22.2302 21.6104 21.1401C22.7004 20.0501 23.3125 18.5714 23.3125 17.0298C23.3125 16.8995 23.3058 16.771 23.2959 16.644H24.083V23.2222C24.083 23.3257 24.0419 23.4253 23.9688 23.4985C23.8957 23.5716 23.7967 23.6126 23.6934 23.6128H11.3076C11.0915 23.6128 10.917 23.4383 10.917 23.2222V16.644H11.7041ZM17.498 13.9868C17.8976 13.9867 18.2939 14.0645 18.6631 14.2173C19.0322 14.3701 19.3678 14.595 19.6504 14.8774C19.9327 15.1598 20.1567 15.4949 20.3096 15.8638C20.4625 16.2328 20.5419 16.6284 20.542 17.0278C20.5421 17.4274 20.4634 17.8237 20.3105 18.1929C20.1577 18.562 19.9338 18.8976 19.6514 19.1802C19.3689 19.4627 19.0331 19.6864 18.6641 19.8394C18.295 19.9923 17.8995 20.0717 17.5 20.0718C16.6932 20.072 15.9193 19.7514 15.3486 19.1812C14.7779 18.6107 14.4573 17.8367 14.457 17.0298C14.4568 16.2229 14.7772 15.4491 15.3477 14.8784C15.918 14.3078 16.6912 13.9871 17.498 13.9868ZM21.75 10.6235H23.873C23.8818 10.6235 23.8903 10.6271 23.8965 10.6333C23.9027 10.6395 23.9062 10.648 23.9062 10.6567V12.7778C23.9062 12.7866 23.9027 12.7951 23.8965 12.8013C23.8903 12.8074 23.8818 12.811 23.873 12.811H21.75C21.7431 12.811 21.7352 12.8089 21.7275 12.8013L21.7168 12.7769V10.6567C21.7168 10.648 21.7204 10.6395 21.7266 10.6333C21.7328 10.6271 21.7412 10.6235 21.75 10.6235Z" stroke="white"/>
</svg>
