<svg width="35" height="35" viewBox="0 0 35 35" fill="none" xmlns="http://www.w3.org/2000/svg">
<path d="M17.5 0.529785C26.6128 0.529785 34 7.91697 34 17.0298C34 26.1426 26.6128 33.5298 17.5 33.5298C8.38718 33.5298 1 26.1426 1 17.0298C1 7.91697 8.38718 0.529785 17.5 0.529785ZM25.3779 10.4673C24.8444 10.7837 24.267 11.0181 23.665 11.1636C23.1155 10.6588 22.4298 10.322 21.6895 10.1997C20.8527 10.0615 19.9938 10.2038 19.2461 10.604C18.4984 11.0043 17.9037 11.6406 17.5547 12.4136C17.299 12.9802 17.1864 13.5973 17.2207 14.2114C16.1721 14.0865 15.1516 13.7805 14.207 13.3013C13.0808 12.7299 12.0869 11.9285 11.29 10.9487L10.834 10.3882L10.4697 11.0122C9.97541 11.8593 9.82365 12.8633 10.0449 13.8188C10.1183 14.1357 10.2314 14.439 10.3789 14.7231L9.91992 14.4692V15.3579C9.92014 16.2465 10.2283 17.1077 10.791 17.7954C10.8753 17.8984 10.9658 17.9953 11.0596 18.0884L10.8613 18.0513L11.1201 18.853C11.3668 19.6166 11.8461 20.2847 12.4902 20.7632C12.7755 20.9751 13.0879 21.1429 13.416 21.2681C12.5617 21.7071 11.5936 21.9556 10.5654 21.9556C10.3093 21.9556 10.0625 21.9443 9.82715 21.9155L9.49609 22.8315C11.1067 23.8691 12.9826 24.4185 14.8984 24.4155C21.3909 24.4155 24.9236 19.03 24.9238 14.3882C24.9238 14.3272 24.9199 14.2643 24.9189 14.2007C25.5331 13.7218 26.068 13.1483 26.501 12.4995L27.457 11.0659L25.8818 11.7651C25.8442 11.7818 25.8055 11.7961 25.7676 11.812C25.9072 11.5725 26.0233 11.3178 26.1094 11.0503L26.5137 9.79346L25.3779 10.4673Z" stroke="white"/>
</svg>
