<svg width="36" height="35" viewBox="0 0 36 35" fill="none" xmlns="http://www.w3.org/2000/svg">
<path d="M18 1.43945C27.4027 1.43945 35 8.8402 35 17.9395C35 27.0387 27.4027 34.4395 18 34.4395C8.59728 34.4395 1 27.0387 1 17.9395C1 8.8402 8.59728 1.43945 18 1.43945ZM19.5146 9.3877C17.0225 9.3878 15.2522 11.457 15.252 13.9121V14.96H12.4355V18.5918H15.252V26.4912H19.3564V18.5918H22.0635L22.1406 18.1846L22.6387 15.5527L22.751 14.96H19.3564V13.6152C19.3564 13.4584 19.4088 13.3328 19.4678 13.2549C19.5009 13.2111 19.5255 13.1935 19.5361 13.1875H22.6455V9.3877H19.5146Z" stroke="white"/>
</svg>
